<!DOCTYPE svg PUBLIC "-//W3C//DTD SVG 1.1//EN" "http://www.w3.org/Graphics/SVG/1.1/DTD/svg11.dtd">
<!-- Uploaded to: SVG Repo, www.svgrepo.com, Transformed by: SVG Repo Mixer Tools -->
<svg width="800px" height="800px" viewBox="0 0 24 24" fill="none" xmlns="http://www.w3.org/2000/svg">
<g id="SVGRepo_bgCarrier" stroke-width="0"/>
<g id="SVGRepo_tracerCarrier" stroke-linecap="round" stroke-linejoin="round"/>
<g id="SVGRepo_iconCarrier"> <path fill-rule="evenodd" clip-rule="evenodd" d="M8.76529 18.2833C8.75176 18.2206 8.74081 18.1576 8.73239 18.0946C8.03265 18.0076 7.33546 17.8925 6.64245 17.7494L6.29899 17.6784C4.96113 17.4022 4 16.2092 4 14.8249C4 13.829 4.49292 12.951 5.2433 12.4262C5.02906 11.037 5.10563 9.61694 5.46866 8.2587L5.51871 8.07144C6.11763 5.83064 7.81404 4.04488 9.98686 3.33087C11.3311 2.88913 12.794 2.88787 14.139 3.33816C16.28 4.05497 17.9176 5.82206 18.4898 8.03325L18.5568 8.29186C18.906 9.64141 18.9741 11.0495 18.7571 12.4265C19.5072 12.9513 20 13.8292 20 14.8249C20 16.2092 19.0389 17.4022 17.701 17.6784L17.3576 17.7494C16.6645 17.8925 15.9673 18.0076 15.2676 18.0946C15.2592 18.1576 15.2482 18.2206 15.2347 18.2833L15.1684 18.5904C14.9261 19.7135 14.071 20.5966 12.9679 20.8629L12.7888 20.9061C12.2702 21.0313 11.7298 21.0313 11.2112 20.9061L11.032 20.8629C9.92905 20.5966 9.07386 19.7135 8.83156 18.5904L8.76529 18.2833ZM10.1583 18.2328C11.3846 18.3184 12.6154 18.3184 13.8417 18.2328L13.8287 18.2933C13.6989 18.8947 13.241 19.3676 12.6503 19.5102L12.4712 19.5534C12.1614 19.6282 11.8386 19.6282 11.5288 19.5534L11.3497 19.5102C10.759 19.3676 10.3011 18.8947 10.1713 18.2933L10.1583 18.2328Z" fill="#D9D9D9"/> </g>
</svg>